<svg width="15" height="13" viewBox="0 0 15 13" fill="none" xmlns="http://www.w3.org/2000/svg">
<path d="M6.79688 9.54688C6.79688 9.73336 6.87096 9.9122 7.00282 10.0441C7.13468 10.1759 7.31352 10.25 7.5 10.25C7.68648 10.25 7.86533 10.1759 7.99719 10.0441C8.12905 9.9122 8.20313 9.73336 8.20313 9.54688C8.20313 9.36039 8.12905 9.18155 7.99719 9.04969C7.86533 8.91783 7.68648 8.84375 7.5 8.84375C7.31352 8.84375 7.13468 8.91783 7.00282 9.04969C6.87096 9.18155 6.79688 9.36039 6.79688 9.54688ZM7.03125 5.09375V7.78906C7.03125 7.85352 7.08399 7.90625 7.14844 7.90625H7.85157C7.91602 7.90625 7.96875 7.85352 7.96875 7.78906V5.09375C7.96875 5.0293 7.91602 4.97656 7.85157 4.97656H7.14844C7.08399 4.97656 7.03125 5.0293 7.03125 5.09375ZM13.9995 11.5391L7.90577 0.992188C7.81494 0.835449 7.65821 0.757812 7.5 0.757812C7.3418 0.757812 7.1836 0.835449 7.09424 0.992188L1.00049 11.5391C0.820318 11.8525 1.0459 12.2422 1.40625 12.2422H13.5938C13.9541 12.2422 14.1797 11.8525 13.9995 11.5391ZM2.52247 11.1304L7.5 2.51416L12.4775 11.1304H2.52247Z" fill="#FF0000"/>
</svg>
